<svg width="27" height="27" viewBox="0 0 27 27" fill="none" xmlns="http://www.w3.org/2000/svg">
<g clip-path="url(#clip0_58_14)">
<path d="M21.9375 10.9688C21.9375 13.3893 21.1518 15.6252 19.8281 17.4393L26.5043 24.1207C27.1635 24.7799 27.1635 25.8504 26.5043 26.5096C25.8451 27.1688 24.7746 27.1688 24.1154 26.5096L17.4393 19.8281C15.6252 21.157 13.3893 21.9375 10.9687 21.9375C4.90957 21.9375 0 17.0279 0 10.9688C0 4.90957 4.90957 0 10.9687 0C17.0279 0 21.9375 4.90957 21.9375 10.9688ZM5.48437 11.3906V14.7656C5.48437 15.467 6.04863 16.0312 6.75 16.0312C7.45137 16.0312 8.01562 15.467 8.01562 14.7656V11.3906C8.01562 10.6893 7.45137 10.125 6.75 10.125C6.04863 10.125 5.48437 10.6893 5.48437 11.3906ZM9.70312 6.32812V14.7656C9.70312 15.467 10.2674 16.0312 10.9687 16.0312C11.6701 16.0312 12.2344 15.467 12.2344 14.7656V6.32812C12.2344 5.62676 11.6701 5.0625 10.9687 5.0625C10.2674 5.0625 9.70312 5.62676 9.70312 6.32812ZM13.9219 9.70312V14.7656C13.9219 15.467 14.4861 16.0312 15.1875 16.0312C15.8889 16.0312 16.4531 15.467 16.4531 14.7656V9.70312C16.4531 9.00176 15.8889 8.4375 15.1875 8.4375C14.4861 8.4375 13.9219 9.00176 13.9219 9.70312Z" fill="#005173"/>
</g>
<defs>
<clipPath id="clip0_58_14">
<rect width="27" height="27" fill="white"/>
</clipPath>
</defs>
</svg>
