<svg width="25" height="25" viewBox="0 0 25 25" fill="none" xmlns="http://www.w3.org/2000/svg">
<path fill-rule="evenodd" clip-rule="evenodd" d="M20.833 6.94442C20.833 6.39188 21.0525 5.86198 21.4432 5.47128C21.8339 5.08058 22.3638 4.86108 22.9163 4.86108C23.4689 4.86108 23.9988 5.08058 24.3895 5.47128C24.7802 5.86198 24.9997 6.39188 24.9997 6.94442V21.0437L22.9163 24.1687L20.833 21.0437V6.94442ZM22.9163 6.24997C22.7322 6.24997 22.5555 6.32314 22.4253 6.45337C22.2951 6.5836 22.2219 6.76024 22.2219 6.94442V20.6229L22.9163 21.6646L23.6108 20.6229V6.94442C23.6108 6.76024 23.5376 6.5836 23.4074 6.45337C23.2772 6.32314 23.1005 6.24997 22.9163 6.24997Z" fill="#005173"/>
<path fill-rule="evenodd" clip-rule="evenodd" d="M24.3056 9.72222H21.5278V8.33333H24.3056V9.72222ZM2.77778 1.38889C2.40942 1.38889 2.05615 1.53522 1.79569 1.79569C1.53522 2.05615 1.38889 2.40942 1.38889 2.77778V22.2222C1.38889 22.5906 1.53522 22.9438 1.79569 23.2043C2.05615 23.4648 2.40942 23.6111 2.77778 23.6111H16.6667C17.035 23.6111 17.3883 23.4648 17.6488 23.2043C17.9092 22.9438 18.0556 22.5906 18.0556 22.2222V2.77778C18.0556 2.40942 17.9092 2.05615 17.6488 1.79569C17.3883 1.53522 17.035 1.38889 16.6667 1.38889H2.77778ZM0 2.77778C0 2.04107 0.292658 1.33453 0.813592 0.813592C1.33453 0.292658 2.04107 0 2.77778 0H16.6667C17.4034 0 18.1099 0.292658 18.6309 0.813592C19.1518 1.33453 19.4444 2.04107 19.4444 2.77778V22.2222C19.4444 22.9589 19.1518 23.6655 18.6309 24.1864C18.1099 24.7073 17.4034 25 16.6667 25H2.77778C2.04107 25 1.33453 24.7073 0.813592 24.1864C0.292658 23.6655 0 22.9589 0 22.2222V2.77778Z" fill="#005173"/>
<path fill-rule="evenodd" clip-rule="evenodd" d="M9.72251 6.24999C9.72251 6.06581 9.79567 5.88917 9.92591 5.75894C10.0561 5.62871 10.2328 5.55554 10.417 5.55554H15.9725C16.1567 5.55554 16.3333 5.62871 16.4636 5.75894C16.5938 5.88917 16.667 6.06581 16.667 6.24999C16.667 6.43416 16.5938 6.6108 16.4636 6.74103C16.3333 6.87127 16.1567 6.94443 15.9725 6.94443H10.417C10.2328 6.94443 10.0561 6.87127 9.92591 6.74103C9.79567 6.6108 9.72251 6.43416 9.72251 6.24999ZM9.72251 9.02776C9.72251 8.84359 9.79567 8.66695 9.92591 8.53672C10.0561 8.40648 10.2328 8.33332 10.417 8.33332H15.9725C16.1567 8.33332 16.3333 8.40648 16.4636 8.53672C16.5938 8.66695 16.667 8.84359 16.667 9.02776C16.667 9.21194 16.5938 9.38858 16.4636 9.51881C16.3333 9.64904 16.1567 9.72221 15.9725 9.72221H10.417C10.2328 9.72221 10.0561 9.64904 9.92591 9.51881C9.79567 9.38858 9.72251 9.21194 9.72251 9.02776ZM9.72251 15.2778C9.72251 15.0936 9.79567 14.917 9.92591 14.7867C10.0561 14.6565 10.2328 14.5833 10.417 14.5833H15.9725C16.1567 14.5833 16.3333 14.6565 16.4636 14.7867C16.5938 14.917 16.667 15.0936 16.667 15.2778C16.667 15.4619 16.5938 15.6386 16.4636 15.7688C16.3333 15.899 16.1567 15.9722 15.9725 15.9722H10.417C10.2328 15.9722 10.0561 15.899 9.92591 15.7688C9.79567 15.6386 9.72251 15.4619 9.72251 15.2778ZM9.72251 18.0555C9.72251 17.8714 9.79567 17.6947 9.92591 17.5645C10.0561 17.4343 10.2328 17.3611 10.417 17.3611H15.9725C16.1567 17.3611 16.3333 17.4343 16.4636 17.5645C16.5938 17.6947 16.667 17.8714 16.667 18.0555C16.667 18.2397 16.5938 18.4164 16.4636 18.5466C16.3333 18.6768 16.1567 18.75 15.9725 18.75H10.417C10.2328 18.75 10.0561 18.6768 9.92591 18.5466C9.79567 18.4164 9.72251 18.2397 9.72251 18.0555ZM4.16695 15.2778V17.3611H6.25029V15.2778H4.16695ZM3.47251 13.8889H6.94473C7.12891 13.8889 7.30554 13.962 7.43578 14.0923C7.56601 14.2225 7.63918 14.3991 7.63918 14.5833V18.0555C7.63918 18.2397 7.56601 18.4164 7.43578 18.5466C7.30554 18.6768 7.12891 18.75 6.94473 18.75H3.47251C3.28833 18.75 3.1117 18.6768 2.98146 18.5466C2.85123 18.4164 2.77807 18.2397 2.77807 18.0555V14.5833C2.77807 14.3991 2.85123 14.2225 2.98146 14.0923C3.1117 13.962 3.28833 13.8889 3.47251 13.8889ZM8.13015 5.75901C8.26034 5.88924 8.33347 6.06584 8.33347 6.24999C8.33347 6.43413 8.26034 6.61073 8.13015 6.74096L4.8614 10.0097L2.98154 8.12985C2.91521 8.06579 2.86231 7.98916 2.82591 7.90443C2.78952 7.81971 2.77036 7.72858 2.76956 7.63638C2.76876 7.54417 2.78633 7.45272 2.82124 7.36738C2.85616 7.28204 2.90773 7.2045 2.97293 7.1393C3.03813 7.07409 3.11567 7.02253 3.20101 6.98761C3.28636 6.95269 3.3778 6.93512 3.47001 6.93592C3.56222 6.93672 3.65334 6.95588 3.73807 6.99228C3.82279 7.02867 3.89942 7.08158 3.96348 7.1479L4.8614 8.04582L7.1482 5.75901C7.27843 5.62883 7.45503 5.55569 7.63918 5.55569C7.82332 5.55569 7.99992 5.62883 8.13015 5.75901Z" fill="#005173"/>
</svg>
