<svg width="31" height="26" viewBox="0 0 31 26" fill="none" xmlns="http://www.w3.org/2000/svg">
<path d="M7.75 3.17045C7.75 1.42175 9.14016 0 10.85 0H27.9C29.6098 0 31 1.42175 31 3.17045V17.4375C31 19.1862 29.6098 20.608 27.9 20.608H16.3137C15.7422 19.3447 14.8655 18.2549 13.7756 17.4375H18.6V15.8523C18.6 14.9754 19.2927 14.267 20.15 14.267H23.25C24.1073 14.267 24.8 14.9754 24.8 15.8523V17.4375H27.9V3.17045H10.85V5.60279C9.93937 5.06282 8.87859 4.75568 7.75 4.75568V3.17045ZM7.75 15.8523C5.18281 15.8523 3.1 13.7221 3.1 11.0966C3.1 8.47106 5.18281 6.34091 7.75 6.34091C10.3172 6.34091 12.4 8.47106 12.4 11.0966C12.4 13.7221 10.3172 15.8523 7.75 15.8523ZM6.45672 17.4375H9.03844C12.6083 17.4375 15.5 20.3949 15.5 24.041C15.5 24.7692 14.9236 25.3636 14.2067 25.3636H1.29328C0.576406 25.3636 0 24.7741 0 24.041C0 20.3949 2.89172 17.4375 6.45672 17.4375Z" fill="#005173"/>
</svg>
