<svg width="19" height="24" viewBox="0 0 19 24" fill="none" xmlns="http://www.w3.org/2000/svg">
<path d="M19 3.75V6C19 8.07187 14.7462 9.75 9.5 9.75C4.25379 9.75 0 8.07187 0 6V3.75C0 1.67812 4.25379 0 9.5 0C14.7462 0 19 1.67812 19 3.75ZM16.6759 10.0641C17.558 9.71719 18.3681 9.27188 19 8.72344V13.5C19 15.5719 14.7462 17.25 9.5 17.25C4.25379 17.25 0 15.5719 0 13.5V8.72344C0.63192 9.27656 1.44196 9.71719 2.32411 10.0641C4.22835 10.8141 6.76451 11.25 9.5 11.25C12.2355 11.25 14.7717 10.8141 16.6759 10.0641ZM0 16.2234C0.63192 16.7766 1.44196 17.2172 2.32411 17.5641C4.22835 18.3141 6.76451 18.75 9.5 18.75C12.2355 18.75 14.7717 18.3141 16.6759 17.5641C17.558 17.2172 18.3681 16.7719 19 16.2234V20.25C19 22.3219 14.7462 24 9.5 24C4.25379 24 0 22.3219 0 20.25V16.2234Z" fill="#005173"/>
</svg>
